<svg width="16" height="16" viewBox="0 0 16 16" fill="none" xmlns="http://www.w3.org/2000/svg">
<path d="M0.851201 4.408C2.20868 1.70489 4.97517 -0.000952543 8 3.99053e-07C10.156 3.99053e-07 11.9672 0.792 13.352 2.084L11.0584 4.3784C10.2288 3.5856 9.1744 3.1816 8 3.1816C5.916 3.1816 4.152 4.5896 3.524 6.48C3.364 6.96 3.2728 7.472 3.2728 8C3.2728 8.528 3.364 9.04 3.524 9.52C4.1528 11.4112 5.916 12.8184 8 12.8184C9.076 12.8184 9.992 12.5344 10.7088 12.0544C11.5485 11.5015 12.1255 10.6291 12.3056 9.64H8V6.5456H15.5344C15.6288 7.0688 15.68 7.6144 15.68 8.1816C15.68 10.6184 14.808 12.6696 13.2944 14.0616C11.9712 15.284 10.16 16 8 16C5.87801 16.0008 3.84268 15.1583 2.34221 13.6578C0.841733 12.1573 -0.000848665 10.122 6.41441e-07 8C6.41441e-07 6.7088 0.308801 5.488 0.851201 4.408Z" fill="white"/>
</svg>
